<?xml version="1.0" encoding="UTF-8" standalone="no"?>
<!-- Created with Inkscape (http://www.inkscape.org/) -->

<svg
   width="210mm"
   height="297mm"
   viewBox="0 0 210 297"
   version="1.1"
   id="svg1"
   xml:space="preserve"
   inkscape:version="1.3.2 (091e20e, 2023-11-25, custom)"
   sodipodi:docname="vtpw.svg"
   xmlns:inkscape="http://www.inkscape.org/namespaces/inkscape"
   xmlns:sodipodi="http://sodipodi.sourceforge.net/DTD/sodipodi-0.dtd"
   xmlns="http://www.w3.org/2000/svg"
   xmlns:svg="http://www.w3.org/2000/svg"><sodipodi:namedview
     id="namedview1"
     pagecolor="#ffffff"
     bordercolor="#000000"
     borderopacity="0.25"
     inkscape:showpageshadow="2"
     inkscape:pageopacity="0.0"
     inkscape:pagecheckerboard="0"
     inkscape:deskcolor="#d1d1d1"
     inkscape:document-units="mm"
     inkscape:zoom="0.51465132"
     inkscape:cx="19.430631"
     inkscape:cy="368.21046"
     inkscape:window-width="1920"
     inkscape:window-height="1094"
     inkscape:window-x="-11"
     inkscape:window-y="-11"
     inkscape:window-maximized="1"
     inkscape:current-layer="layer1" /><defs
     id="defs1"><rect
       x="196.24937"
       y="357.52361"
       width="190.42019"
       height="265.22811"
       id="rect2" /><rect
       x="168.07496"
       y="418.7301"
       width="263.28505"
       height="146.70127"
       id="rect1" /></defs><g
     inkscape:label="Layer 1"
     inkscape:groupmode="layer"
     id="layer1"><path
       id="path0"
       d="m 184.30728,7.3414127 c -5.769,0.083913 -45.26044,0.5192021 -87.758792,0.9676069 -42.498315,0.4484379 -77.341352,0.8802253 -77.42876,0.9597774 -0.08743,0.079618 0.142494,2.790959 0.511343,6.025962 0.651199,5.709572 0.617982,5.958701 -1.134571,8.487448 -2.75339,3.973601 -1.560251,11.453204 2.017403,12.645492 0.601377,0.201192 0.203671,2.908073 -1.424769,9.718125 -2.821567,11.800251 -2.857406,10.94976 0.835631,19.966023 4.760304,11.622779 5.142281,13.682145 3.187814,17.160163 -1.63368,2.906356 -1.678258,3.381852 -1.341732,14.377037 0.138983,4.540053 -0.0122,5.226213 -1.355716,6.167593 -1.993801,1.39682 -4.317139,6.11165 -6.995354,14.19351 -2.570704,7.75929 -2.589931,8.04601 -0.818149,12.05195 0.839127,1.89591 2.072471,8.32924 3.200922,16.69604 2.172119,16.09899 1.857447,19.09191 -2.864395,27.24802 -0.665184,1.14859 -0.950141,3.3041 -0.832138,6.2865 0.224649,5.65186 1.575112,6.32405 5.060992,2.51824 1.264809,-1.38106 2.887121,-2.50688 3.60475,-2.50165 2.649371,0.0197 4.450876,0.87585 4.450876,2.11618 0,0.69488 0.815527,2.23245 1.812862,3.4177 2.156388,2.56283 2.151141,2.23594 0.921295,60.94166 -0.655569,31.30472 -0.620605,36.39191 0.270105,38.52297 l 1.026182,2.45531 10.046809,0.45015 c 27.994529,1.25521 50.732278,1.93876 57.947885,1.74208 l 8.041647,-0.21935 -0.19128,-1.71411 c -0.10571,-0.94227 -1.79712,-3.91416 -3.75859,-6.60288 -3.864353,-5.29701 -4.970945,-8.03815 -4.380946,-10.8536 1.932605,-9.21554 2.548867,-10.58437 5.560966,-12.34918 3.51298,-2.05933 3.55232,-2.22369 4.22273,-17.77901 0.43879,-10.16045 0.61537,-11.2006 2.82856,-16.61562 l 2.36181,-5.77773 v -15.30621 -15.30622 l 3.19916,-4.25682 c 1.76041,-2.34081 3.49114,-4.43602 3.84602,-4.65542 0.35573,-0.22034 0.64682,-2.29012 0.64682,-4.60033 0,-5.35904 0.47724,-6.23403 6.63,-12.14988 4.93159,-4.74196 5.10382,-5.02165 5.5356,-8.96729 0.43443,-3.96924 2.43523,-8.99704 3.95351,-9.9358 2.80236,-1.73158 4.84161,-6.1737 4.44913,-9.69018 -0.36535,-3.27174 -0.16518,-3.95701 2.36793,-8.11856 l 2.76648,-4.5453 0.50522,-10.13944 c 0.7657,-15.352536 3.91678,-19.986108 13.21012,-19.429311 l 4.98584,0.298981 3.49636,-2.947453 c 1.92299,-1.621432 5.7358,-4.476218 8.47343,-6.343278 9.50137,-6.482263 13.27047,-10.531913 13.836,-14.863926 0.37936,-2.907216 0.96675,-4.218368 2.55234,-5.699926 2.81371,-2.628418 2.64675,-3.742013 -1.8557,-12.366663 -5.13176,-9.82916 -5.06884,-10.349253 2.44923,-20.313896 5.98315,-7.92976 6.65009,-9.871978 4.61346,-13.435661 -1.31202,-2.294486 -1.31202,-5.204311 0,-6.2934588 1.6057,-1.332991 1.2543,-2.1144041 -0.87412,-1.9430767 -1.05764,0.084904 -6.64309,0.2229967 -12.41209,0.3069095"
       stroke="none"
       fill="#000000"
       fill-rule="evenodd"
       style="stroke-width:0.265;stroke:#000000;stroke-opacity:1;stroke-dasharray:none;fill:#132c20;fill-opacity:1" /><circle
       style="fill:#bf963e;stroke:none;stroke-width:0.264999;stroke-linecap:round;stroke-dasharray:none;stroke-opacity:1;fill-opacity:1"
       id="path1"
       cx="77.985634"
       cy="128.0652"
       r="56.165253" /><circle
       style="fill:#bf963e;fill-opacity:1;stroke:#132c20;stroke-width:2.4;stroke-linecap:round;stroke-dasharray:none;stroke-opacity:1"
       id="path1-9"
       cx="77.985634"
       cy="128.0652"
       r="52.799999" /><text
       xml:space="preserve"
       transform="matrix(2.6040961,0,0,2.5788583,-467.10448,-840.66367)"
       id="text2"
       style="font-style:normal;font-variant:normal;font-weight:normal;font-stretch:normal;font-size:37.4115px;font-family:'Lucida Bright';-inkscape-font-specification:'Lucida Bright, Normal';font-variant-ligatures:normal;font-variant-caps:normal;font-variant-numeric:normal;font-variant-east-asian:normal;white-space:pre;shape-inside:url(#rect2);display:inline;fill:#132c20;fill-opacity:1;stroke:#132c20;stroke-width:0.926126;stroke-linecap:round;stroke-dasharray:none;stroke-opacity:1"><tspan
         x="196.25"
         y="391.75103"
         id="tspan3">V</tspan></text><text
       xml:space="preserve"
       transform="matrix(1.4632588,0,0,1.2353597,-209.51534,-402.04013)"
       id="text1"
       style="font-style:normal;font-variant:normal;font-weight:normal;font-stretch:normal;font-size:37.4115px;font-family:'Lucida Bright';-inkscape-font-specification:'Lucida Bright, Normal';font-variant-ligatures:normal;font-variant-caps:normal;font-variant-numeric:normal;font-variant-east-asian:normal;white-space:pre;shape-inside:url(#rect1);display:inline;fill:#132c20;fill-opacity:1;stroke:#bf963e;stroke-width:0.792123;stroke-linecap:round;stroke-dasharray:none;stroke-opacity:1;paint-order:markers stroke fill"><tspan
         x="168.07422"
         y="452.95806"
         id="tspan4">PW</tspan></text></g></svg>
