<?xml version="1.0" encoding="UTF-8" standalone="no"?>
<!-- Created with Inkscape (http://www.inkscape.org/) -->

<svg
   width="210mm"
   height="210mm"
   viewBox="0 0 210 210"
   version="1.1"
   id="svg1"
   xml:space="preserve"
   inkscape:version="1.3.2 (091e20e, 2023-11-25, custom)"
   sodipodi:docname="logo-square.svg"
   inkscape:export-filename="logo.png"
   inkscape:export-xdpi="96"
   inkscape:export-ydpi="96"
   xmlns:inkscape="http://www.inkscape.org/namespaces/inkscape"
   xmlns:sodipodi="http://sodipodi.sourceforge.net/DTD/sodipodi-0.dtd"
   xmlns="http://www.w3.org/2000/svg"
   xmlns:svg="http://www.w3.org/2000/svg"><sodipodi:namedview
     id="namedview1"
     pagecolor="#ffffff"
     bordercolor="#000000"
     borderopacity="0.25"
     inkscape:showpageshadow="2"
     inkscape:pageopacity="0.0"
     inkscape:pagecheckerboard="0"
     inkscape:deskcolor="#d1d1d1"
     inkscape:document-units="mm"
     inkscape:zoom="0.51465132"
     inkscape:cx="19.430631"
     inkscape:cy="469.24974"
     inkscape:window-width="1920"
     inkscape:window-height="1094"
     inkscape:window-x="-11"
     inkscape:window-y="-11"
     inkscape:window-maximized="1"
     inkscape:current-layer="layer1" /><defs
     id="defs1"><rect
       x="196.24937"
       y="357.52362"
       width="190.4202"
       height="265.22812"
       id="rect2" /><rect
       x="168.07497"
       y="418.7301"
       width="263.28506"
       height="146.70126"
       id="rect1" /></defs><g
     inkscape:label="Layer 1"
     inkscape:groupmode="layer"
     id="layer1"><g
       id="g1"
       transform="translate(28.020615,-1.1804921)"><path
         id="path0"
         d="M 132.55624,7.2423763 C 128.51356,7.301191 100.83958,7.6062855 71.058491,7.9205729 41.277423,8.2348834 16.860859,8.5375237 16.799607,8.5932818 c -0.06127,0.055804 0.09985,1.9561862 0.358328,4.2236022 0.456333,4.001845 0.433056,4.17646 -0.795061,5.948861 -1.929462,2.785101 -1.093359,8.027562 1.413713,8.863238 0.42142,0.141015 0.142724,2.038271 -0.998419,6.811443 -1.977238,8.270808 -2.002353,7.674698 0.585576,13.994205 3.335824,8.146417 3.603498,9.589829 2.233888,12.027575 -1.144815,2.037068 -1.176054,2.370344 -0.94023,10.07688 0.09739,3.182127 -0.0085,3.663057 -0.95003,4.322872 -1.397174,0.979032 -3.025273,4.283661 -4.902056,9.948245 -1.801443,5.438494 -1.814917,5.639456 -0.573325,8.447223 0.588026,1.328845 1.452302,5.837973 2.243074,11.702274 1.522132,11.28379 1.301623,13.38154 -2.00725,19.09816 -0.466133,0.80505 -0.665819,2.31585 -0.583128,4.40621 0.157425,3.9614 1.103774,4.43254 3.546535,1.76504 0.886326,-0.96798 2.023175,-1.75707 2.52606,-1.75341 1.85657,0.0138 3.118991,0.61389 3.118991,1.48324 0,0.48704 0.571487,1.56472 1.270379,2.39546 1.511107,1.79629 1.507431,1.56718 0.645605,42.71407 -0.459396,21.94151 -0.434894,25.50713 0.189279,27.00079 l 0.719106,1.72093 7.040389,0.31551 c 19.617413,0.87978 35.55109,1.35888 40.60749,1.22103 l 5.635255,-0.15375 -0.134041,-1.20142 c -0.07408,-0.66044 -1.259348,-2.74344 -2.633865,-4.62796 -2.707979,-3.71268 -3.483434,-5.63395 -3.069987,-7.6073 1.35429,-6.45918 1.786141,-7.4186 3.896896,-8.65555 2.461752,-1.44339 2.48932,-1.55859 2.959115,-12.46133 0.307486,-7.12147 0.431226,-7.85051 1.982139,-11.6459 l 1.655059,-4.04962 v -10.72814 -10.72814 l 2.241839,-2.98361 c 1.233623,-1.64068 2.446447,-3.10921 2.695133,-3.26299 0.249281,-0.15444 0.453264,-1.60515 0.453264,-3.22438 0,-3.75615 0.334431,-4.36943 4.646031,-8.51586 3.455855,-3.32364 3.576547,-3.51968 3.879121,-6.28518 0.30443,-2.78205 1.706508,-6.30604 2.770456,-6.96401 1.963774,-1.21367 3.392804,-4.327155 3.117764,-6.791859 -0.25602,-2.293166 -0.11575,-2.773473 1.65935,-5.690307 l 1.93864,-3.185805 0.35403,-7.106744 c 0.53657,-10.760607 2.74472,-14.008282 9.25711,-13.618023 l 3.49387,0.209556 2.45011,-2.065873 c 1.34755,-1.136463 4.01941,-3.137385 5.93783,-4.446009 6.65817,-4.543425 9.2994,-7.381828 9.6957,-10.418141 0.26584,-2.03767 0.67746,-2.956658 1.78857,-3.995083 1.97173,-1.842261 1.85473,-2.622781 -1.3004,-8.667807 -3.59612,-6.889267 -3.55203,-7.253801 1.71632,-14.238029 4.19275,-5.557977 4.66011,-6.919279 3.23293,-9.417068 -0.91941,-1.608208 -0.91941,-3.6477068 0,-4.4110916 1.1252,-0.9342947 0.87896,-1.4819879 -0.61255,-1.3619043 -0.74115,0.059509 -4.65521,0.1562986 -8.69788,0.2151131"
         stroke="none"
         fill="#000000"
         fill-rule="evenodd"
         style="fill:#132c20;fill-opacity:1;stroke:#000000;stroke-width:0.265;stroke-dasharray:none;stroke-opacity:1" /><ellipse
         style="fill:#bf963e;fill-opacity:1;stroke:none;stroke-width:0.264999;stroke-linecap:round;stroke-dasharray:none;stroke-opacity:1"
         id="path1"
         cx="58.050407"
         cy="91.857796"
         rx="39.358295"
         ry="39.36628" /><ellipse
         style="fill:#bf963e;fill-opacity:1;stroke:#132c20;stroke-width:2.4;stroke-linecap:round;stroke-dasharray:none;stroke-opacity:1"
         id="path1-9"
         cx="58.050407"
         cy="91.857796"
         rx="37.000065"
         ry="37.007572" /><text
         xml:space="preserve"
         transform="matrix(1.8248432,0,0,1.8075243,-323.92628,-587.12521)"
         id="text2"
         style="font-style:normal;font-variant:normal;font-weight:normal;font-stretch:normal;font-size:37.4115px;font-family:'Lucida Bright';-inkscape-font-specification:'Lucida Bright, Normal';font-variant-ligatures:normal;font-variant-caps:normal;font-variant-numeric:normal;font-variant-east-asian:normal;white-space:pre;shape-inside:url(#rect2);display:inline;fill:#132c20;fill-opacity:1;stroke:#132c20;stroke-width:1.32147;stroke-linecap:round;stroke-dasharray:none;stroke-opacity:1"><tspan
           x="196.25"
           y="391.75103"
           id="tspan3">V</tspan></text><text
         xml:space="preserve"
         transform="matrix(1.0253915,0,0,0.86586482,-143.41843,-279.69355)"
         id="text1"
         style="font-style:normal;font-variant:normal;font-weight:normal;font-stretch:normal;font-size:37.4115px;font-family:'Lucida Bright';-inkscape-font-specification:'Lucida Bright, Normal';font-variant-ligatures:normal;font-variant-caps:normal;font-variant-numeric:normal;font-variant-east-asian:normal;white-space:pre;shape-inside:url(#rect1);display:inline;fill:#132c20;fill-opacity:1;stroke:#bf963e;stroke-width:1.13026;stroke-linecap:round;stroke-dasharray:none;stroke-opacity:1;paint-order:markers stroke fill"><tspan
           x="168.07422"
           y="452.95806"
           id="tspan4">PW</tspan></text></g></g></svg>
